#!OML:ASF F:\VICON\USERDATA\INSTALL\Justin_Nancy\Justin_Nancy.ASF
:FULLY-SPECIFIED
:DEGREES
309
root -8.26724 17.5848 9.65193 0.0648958 41.0438 -4.39671
lowerback 8.88519 -0.028792 1.06378
upperback 0.428812 0.218135 2.69957
thorax -4.54804 0.121916 2.18126
lowerneck -16.7804 -3.55604 -8.40261
upperneck 21.1473 -3.09131 2.16031
head 9.65341 -1.84149 1.73962
rclavicle -8.34896e-015 2.34566e-014
rhumerus -30.1574 -8.45197 -79.053
rradius 30.5451
rwrist 6.53189
rhand -13.5581 9.63014
rfingers 7.12502
rthumb 12.5552 -19.9726
lclavicle -8.34896e-015 2.34566e-014
lhumerus -27.6384 8.15937 87.1095
lradius 30.4204
lwrist -6.61672
lhand -16.9387 21.3626
lfingers 7.12502
lthumb 9.29453 51.1377
rfemur -7.46674 1.74617 18.4702
rtibia 20.0046
rfoot -8.99878 -5.4644
rtoes -14.0764
lfemur -21.4638 -5.17239 -14.9349
ltibia 55.8842
lfoot -7.93009 -1.21597
ltoes 3.24515
310
root -8.24542 17.5873 9.73789 0.274094 42.3908 -4.26374
lowerback 9.00392 0.0483388 1.27972
upperback 0.331387 0.340495 2.53808
thorax -4.71771 0.176069 1.87649
lowerneck -16.1004 -3.42833 -7.75685
upperneck 20.5946 -2.96294 1.38434
head 9.30349 -1.80976 1.38774
rclavicle -6.90777e-015 -6.75868e-015
rhumerus -30.5313 -9.29798 -78.8177
rradius 31.3018
rwrist 7.21344
rhand -11.7218 8.58233
rfingers 7.12502
rthumb 14.3251 -20.9035
lclavicle -6.90777e-015 -6.75868e-015
lhumerus -27.8344 7.76891 87.0197
lradius 30.3858
lwrist -6.51059
lhand -16.7825 20.9079
lfingers 7.12502
lthumb 9.44522 50.6763
rfemur -7.33841 1.16346 18.5307
rtibia 20.2968
rfoot -8.90906 -6.38273
rtoes -14.8262
lfemur -22.4814 -4.26894 -15.0319
ltibia 55.5047
lfoot -8.46117 -0.365983
ltoes 3.43773
311
root -8.22104 17.5889 9.8365 0.425182 44.0257 -4.02658
lowerback 8.95835 0.0520036 1.19881
upperback 0.359882 0.328926 2.42015
thorax -4.6616 0.170699 1.80015
lowerneck -15.3121 -3.42362 -7.30945
upperneck 19.9307 -3.05787 1.01657
head 8.9192 -1.85055 1.18624
rclavicle 6.74874e-014 8.34896e-015
rhumerus -30.8831 -10.1323 -78.508
rradius 31.9243
rwrist 8.34519
rhand -10.7133 8.07732
rfingers 7.12502
rthumb 15.2967 -21.337
lclavicle 6.74874e-014 8.34896e-015
lhumerus -27.6763 8.78068 86.5792
lradius 29.7009
lwrist -7.95393
lhand -16.2043 19.0016
lfingers 7.12502
lthumb 10.0031 48.7439
rfemur -6.77772 0.790057 18.5316
rtibia 20.586
rfoot -9.35727 -7.66112
rtoes -12.1572
lfemur -23.2407 -3.6921 -15.2032
ltibia 54.9145
lfoot -9.06666 -0.0809791
ltoes 2.4677
312
root -8.19673 17.6001 9.93972 0.574852 45.6861 -3.8894
lowerback 8.81856 -0.0134702 1.04754
upperback 0.392182 0.219266 2.36584
thorax -4.54712 0.119042 1.84193
lowerneck -15.2378 -3.42925 -7.48064
upperneck 19.9603 -3.09953 1.3407
head 8.92533 -1.84806 1.32089
rclavicle 1.44815e-013 7.95139e-016
rhumerus -31.0501 -9.87346 -78.5318
rradius 32.036
rwrist 8.71887
rhand -12.6058 9.05482
rfingers 7.12502
rthumb 13.4731 -20.4894
lclavicle 1.44815e-013 7.95139e-016
lhumerus -27.7913 9.31877 86.2545
lradius 29.5416
lwrist -8.47237
lhand -16.1551 18.6789
lfingers 7.12502
lthumb 10.0505 48.419
rfemur -6.24108 0.452417 18.6734
rtibia 20.7593
rfoot -9.59355 -8.91684
rtoes -9.57399
lfemur -24.0245 -2.97244 -15.3133
ltibia 54.1553
lfoot -9.87643 -0.562595
ltoes 2.54297
313
root -8.17398 17.6116 10.0473 0.385314 46.8895 -4.10338
lowerback 8.84135 -0.0387485 0.960012
upperback 0.419783 0.184258 2.48864
thorax -4.53109 0.105472 2.02365
lowerneck -16.3127 -3.56205 -8.607
upperneck 21.3389 -3.09987 2.28153
head 9.6415 -1.84735 1.82143
rclavicle 1.99282e-014 2.50469e-014
rhumerus -30.6602 -8.69884 -78.7452
rradius 31.3943
rwrist 8.03
rhand -14.5422 10.1469
rfingers 7.12502
rthumb 11.6063 -19.5117
lclavicle 1.99282e-014 2.50469e-014
lhumerus -28.1082 9.54088 86.0976
lradius 29.6496
lwrist -7.68701
lhand -16.6292 18.8225
lfingers 7.12502
lthumb 9.59314 48.5841
rfemur -5.82801 0.678534 19.0759
rtibia 20.9477
rfoot -9.70956 -10.0397
rtoes -10.6114
lfemur -24.7198 -1.68286 -15.2439
ltibia 53.2718
lfoot -10.5199 -0.812529
ltoes 1.66103
